<?xml version="1.0" encoding="UTF-8"?>
<svg id="Layer_1" data-name="Layer 1" xmlns="http://www.w3.org/2000/svg" viewBox="0 0 32 32">
  <defs>
    <style>
      .cls-1 {
        fill: #231f20;
      }

      .cls-2 {
        fill: #ffbf00;
      }
    </style>
  </defs>
  <path class="cls-1" d="M4.447,9.151c2.45-1.012,5.231,1.084,6.407,3.124.166.288.316.607.29.939s-.291.665-.623.655c-.355-.011-.58-.366-.847-.601-.767-.675-2.067-.31-2.681.507-.823,1.095-.447,2.807.704,3.525,1.6.998,3.104-.754,3.705-2.084,1.473-3.254,1.276-7.185,3.403-10.156,1.751-2.445,4.968-3.675,7.879-2.807,2.995.893,5.197,3.871,4.829,7.032-.426,3.667-3.5,6.258-6.834,7.345-.813.265-1.649.458-2.493.594,2.236.954,4.065,2.823,4.971,5.079s.878,4.871-.076,7.107c-.077.18-.166.366-.326.479-.178.125-.409.137-.626.139-2.597.018-5.226-.858-7.166-2.585s-3.133-4.32-2.989-6.914c.014-.254.177-.649.396-.691.218-.042.44.53.484.931.24,2.161,1.375,4.173,2.982,5.639s3.755,2.323,5.93,2.365c1.076-2.36.829-5.275-.631-7.42s-4.08-3.445-6.671-3.309c-.298.016-.609.05-.904.008-.384-.054-.623-.124-.324-.726.082-.166.284-.366.446-.458.929-.527,2.2-.663,3.584-.896,2.444-.413,4.886-1.293,6.697-2.984,1.1-1.028,1.95-2.406,2.035-3.908.141-2.505-1.99-4.766-4.441-5.3-1.062-.232-2.195-.193-3.205.208-1.954.776-3.164,2.766-3.806,4.768s-.86,4.126-1.581,6.101c-.373,1.022-.892,2.013-1.671,2.774-1.243,1.214-3.007,1.606-4.49.594-1.288-.879-1.967-2.546-1.499-4.057.359-1.159,1.358-2.077,2.517-2.406.26-.074.547-.078.815-.099.108-.009.283.022.273-.109-.009-.122-.277-.357-.357-.448-.508-.568-1.169-1.077-1.895-1.327-1.381-.475-1.952-.232-2.21-.625"/>
  <g>
    <path class="cls-2" d="M20.903,22.423c-1.997.338-3.825,1.827-4.643,3.318-.072.131-.059.294.041.406.303.342.727.611,1.228.802.099.038.2-.012.26-.1.903-1.323,2.249-2.447,3.801-2.562.105-.008.193-.087.198-.192.023-.478-.211-1.107-.557-1.546-.078-.099-.204-.147-.328-.127Z"/>
    <path class="cls-2" d="M14.834,18.711c-.596.302-1.112.706-1.523,1.237-.065.085-.091.194-.076.3.02.141.044.295.078.49.049.287.114.572.192.855.036.129.196.168.287.069.894-.975,1.953-1.797,3.134-2.42.131-.069.113-.265-.03-.307-.563-.169-1.145-.271-1.729-.296-.115-.005-.231.02-.334.072Z"/>
    <path class="cls-2" d="M18.38,19.856c-1.716.635-3.018,1.58-4.128,2.988-.124.157-.165.365-.112.559.135.494.49,1.122.949,1.524.083.073.212.052.272-.04,1.123-1.702,2.614-2.937,4.757-3.537.117-.033.173-.166.111-.271-.266-.448-.834-.96-1.363-1.203-.153-.071-.329-.078-.487-.02Z"/>
    <path class="cls-2" d="M19.08,27.718c.406.136.822.243,1.243.318.076.014.151-.021.197-.083.269-.367.656-.643,1.108-.773.074-.021.132-.08.146-.156.074-.424.11-.854.108-1.284,0-.172-.155-.308-.325-.278-1.134.196-2.089.895-2.636,1.854-.087.153-.006.346.16.401Z"/>
  </g>
</svg>