<?xml version="1.0" encoding="UTF-8"?>
<svg id="Layer_1" data-name="Layer 1" xmlns="http://www.w3.org/2000/svg" xmlns:xlink="http://www.w3.org/1999/xlink" viewBox="0 0 841.89 309.77">
  <defs>
    <style>
      .cls-1 {
        fill: url(#linear-gradient-2);
      }

      .cls-2 {
        fill: #231f20;
      }

      .cls-3 {
        fill: url(#linear-gradient);
      }

      .cls-4 {
        fill: #ffbe00;
      }

      .cls-5 {
        fill: #ffbf00;
      }
    </style>
    <linearGradient id="linear-gradient" x1="579.495" y1="263.455" x2="712.321" y2="263.455" gradientUnits="userSpaceOnUse">
      <stop offset="0" stop-color="#231f20"/>
      <stop offset=".99" stop-color="#bbbdbf" stop-opacity="0"/>
    </linearGradient>
    <linearGradient id="linear-gradient-2" x1="568.117" x2="695.596" gradientTransform="translate(-462.378 526.91) scale(1.042 -1)" xlink:href="#linear-gradient"/>
  </defs>
  <g>
    <g>
      <path d="M210.501,177.219c2.581,3.012,6.495,4.517,11.743,4.517,4.472,0,9.162-1.032,14.066-3.097,4.904-2.064,10.108-5.311,15.615-9.743,5.505-4.43,10.646-9.376,15.421-14.84,4.775-5.462,9.485-11.85,14.131-19.164l5.42,2.839c-4.129,7.83-8.82,14.863-14.066,21.099-5.249,6.239-11.185,11.895-17.809,16.97-6.626,5.077-13.163,8.904-19.615,11.485-3.355,1.206-6.452,2.107-9.291,2.71-2.839.601-5.765.903-8.775.903-3.787,0-7.184-.558-10.194-1.673-2.839-1.202-5.42-3.006-7.743-5.412-1.807-2.145-3.442-5.022-4.904-8.63-1.119-3.95-1.677-7.729-1.677-11.336,0-6.267.968-11.892,2.903-16.873s4.904-9.683,8.904-14.106c4-4.422,8.495-7.707,13.485-9.854,4.988-2.146,10.108-3.22,15.356-3.22h3.097c1.291,0,2.71.303,4.258.903,2.065.517,3.85,1.42,5.355,2.71,1.504,1.291,2.817,3.013,3.936,5.162.343.948.645,1.936.903,2.968.258,1.032.387,2.064.387,3.097,0,3.613-1.097,7.078-3.291,10.388-2.194,3.313-5.594,6.475-10.195,9.485-4.604,3.012-9.679,5.226-15.228,6.646s-10.904,2.129-16.066,2.129c0,5.936,1.291,10.582,3.872,13.937ZM219.277,155.023c3.785-1.291,7.227-3.075,10.323-5.355,3.097-2.279,5.44-4.752,7.033-7.42,1.591-2.666,2.387-5.462,2.387-8.388,0-2.752-.603-4.795-1.807-6.13-1.206-1.333-2.968-2-5.291-2-2.581,0-5.184.732-7.808,2.193-2.625,1.464-5.313,3.829-8.065,7.098-2.238,2.839-4.065,6.023-5.484,9.549-1.419,3.529-2.603,7.743-3.549,12.647,4.301,0,8.388-.73,12.26-2.194Z"/>
      <path d="M284.574,177.219c2.581,3.012,6.495,4.517,11.743,4.517,4.472,0,9.162-1.032,14.066-3.097,4.904-2.064,10.108-5.311,15.615-9.743,5.505-4.43,10.646-9.376,15.421-14.84,4.775-5.462,9.485-11.85,14.131-19.164l5.42,2.839c-4.129,7.83-8.82,14.863-14.066,21.099-5.249,6.239-11.185,11.895-17.809,16.97-6.626,5.077-13.163,8.904-19.615,11.485-3.355,1.206-6.452,2.107-9.291,2.71-2.839.601-5.765.903-8.775.903-3.787,0-7.184-.558-10.194-1.673-2.839-1.202-5.42-3.006-7.743-5.412-1.807-2.145-3.442-5.022-4.904-8.63-1.119-3.95-1.677-7.729-1.677-11.336,0-6.267.968-11.892,2.903-16.873s4.904-9.683,8.904-14.106c4-4.422,8.495-7.707,13.485-9.854,4.988-2.146,10.108-3.22,15.356-3.22h3.097c1.291,0,2.71.303,4.258.903,2.065.517,3.85,1.42,5.355,2.71,1.504,1.291,2.817,3.013,3.936,5.162.343.948.645,1.936.903,2.968.258,1.032.387,2.064.387,3.097,0,3.613-1.097,7.078-3.291,10.388-2.194,3.313-5.594,6.475-10.195,9.485-4.604,3.012-9.679,5.226-15.228,6.646s-10.904,2.129-16.066,2.129c0,5.936,1.291,10.582,3.872,13.937ZM293.35,155.023c3.785-1.291,7.227-3.075,10.323-5.355,3.097-2.279,5.44-4.752,7.033-7.42,1.591-2.666,2.387-5.462,2.387-8.388,0-2.752-.603-4.795-1.807-6.13-1.206-1.333-2.968-2-5.291-2-2.581,0-5.184.732-7.808,2.193-2.625,1.464-5.313,3.829-8.065,7.098-2.238,2.839-4.065,6.023-5.484,9.549-1.419,3.529-2.603,7.743-3.549,12.647,4.301,0,8.388-.73,12.26-2.194Z"/>
      <path d="M364.711,172.444c-1.548-5.591-3.484-11.14-5.807-16.647l-3.484-7.613c-1.119-2.495-2.323-4.688-3.613-6.582l-3.872-5.936-4-5.162c1.291-1.032,2.839-1.978,4.646-2.839l2.193-.774,2.71-.258c1.633,0,2.923.345,3.871,1.032,1.032.516,2.042,1.399,3.033,2.646.988,1.248,2.085,3.206,3.291,5.872l3.872,9.549,3.097,9.033,2.71,8.259,4.129,15.486c6.968-11.078,12.431-21.599,16.389-31.564.774-1.976,1.678-4.509,2.71-7.602.774-2.319,1.504-4.68,2.194-7.085,1.204-4.553,1.807-8.719,1.807-12.498,3.872.516,6.582,1.377,8.13,2.579,1.892,1.204,2.839,2.794,2.839,4.771,0,2.149-.861,5.2-2.581,9.152-.173.516-.581,1.526-1.226,3.031-.645,1.504-1.226,2.814-1.742,3.932l-4.387,8.767c-1.636,3.182-3.271,6.21-4.904,9.09-1.635,2.879-3.442,5.868-5.42,8.96-1.635,2.75-2.668,4.47-3.097,5.158-.087.174-.819,1.204-2.194,3.093l-5.807,8.124c-4.303,5.843-8.604,11.043-12.905,15.601-4.303,4.553-8.69,8.636-13.163,12.247-4.474,3.607-8.562,6.315-12.259,8.122-3.7,1.804-7.142,2.708-10.324,2.708-2.926,0-5.033-.603-6.323-1.807-1.291-1.206-1.936-2.968-1.936-5.291l.387-3.227,1.162-3.613c1.117.688,2.407,1.226,3.871,1.613,1.462.387,2.968.581,4.517.581,6.108,0,12.066-1.98,17.873-5.936,5.807-3.958,11.592-10.023,17.357-18.195-.861-6.279-2.109-11.873-3.743-16.776Z"/>
      <path d="M482.531,144.649l.129,1.288c0,5.839-1.033,11.423-3.098,16.748s-5.184,10.243-9.355,14.751c-4.174,4.509-8.668,7.88-13.486,10.112-4.818,2.232-9.936,3.349-15.355,3.349-3.959,0-7.658-.645-11.098-1.936-3.443-1.291-6.627-3.269-9.551-5.936-2.15-2.408-4.174-5.505-6.065-9.292-1.29-3.526-1.936-7.44-1.936-11.743,0-5.075.839-9.634,2.516-13.679,1.678-4.043,4.195-7.872,7.549-11.485,3.355-3.613,7.119-6.366,11.293-8.259,4.172-1.892,8.58-2.839,13.227-2.839l2.193.258,2.453.387-1.291-2.581-.387-2.194.387-2.968c.258-.946.816-1.892,1.678-2.839,2.494,0,4.924.387,7.291,1.161,2.365.774,4.623,1.894,6.775,3.355,4.301,2.581,8.172,6.323,11.613,11.227l5.291,3.226,5.42,2.194,4.518,1.032c1.547.258,2.664.432,3.354.516.688.087,1.764.129,3.227.129,2.494,0,5.033-.429,7.613-1.291l4.002-1.419c1.289-.516,2.709-1.291,4.258-2.323l3.227,5.033c-3.441,2.408-6.84,4.281-10.195,5.618-3.957,1.159-7.441,1.738-10.453,1.738h-5.031c-1.119-.262-1.938-.438-2.453-.526l-4-.919-4.387-1.313.129,1.418ZM463.045,135.504c-1.549-.796-3.055-1.814-4.518-3.055l-3.096-.397h-2.324c-3.527,0-6.883.796-10.064,2.387-3.184,1.593-6.131,3.958-8.84,7.098-2.711,3.141-4.775,6.668-6.195,10.582-1.42,3.916-2.129,7.765-2.129,11.55,0,2.926.43,5.636,1.291,8.13.172.603.342,1.141.516,1.613.172.474.473,1.097.904,1.871l2.322,3.097c1.721,1.807,3.613,3.271,5.678,4.387,2.15.948,4.559,1.42,7.227,1.42,3.27,0,6.494-.899,9.678-2.7,3.184-1.8,6.066-4.502,8.646-8.104,2.324-3.172,4.172-7.029,5.549-11.574,1.375-4.545,2.064-9.175,2.064-13.891l-.129-1.93-.387-3.186-1.16-5.176-2.711-.796-2.322-1.327Z"/>
      <path d="M567.701,144.649l.129,1.288c0,5.839-1.032,11.423-3.098,16.748-2.064,5.325-5.184,10.243-9.355,14.751-4.174,4.509-8.668,7.88-13.485,10.112-4.819,2.232-9.937,3.349-15.356,3.349-3.958,0-7.658-.645-11.098-1.936-3.442-1.291-6.626-3.269-9.55-5.936-2.151-2.408-4.174-5.505-6.065-9.292-1.29-3.526-1.936-7.44-1.936-11.743,0-5.075.839-9.634,2.517-13.679,1.678-4.043,4.194-7.872,7.549-11.485,3.355-3.613,7.118-6.366,11.292-8.259,4.172-1.892,8.581-2.839,13.227-2.839l2.194.258,2.452.387-1.291-2.581-.387-2.194.387-2.968c.259-.946.816-1.892,1.678-2.839,2.494,0,4.924.387,7.291,1.161,2.365.774,4.624,1.894,6.775,3.355,4.301,2.581,8.172,6.323,11.614,11.227l5.29,3.226,5.421,2.194,4.517,1.032c1.548.258,2.665.432,3.354.516.688.087,1.763.129,3.227.129,2.494,0,5.032-.429,7.613-1.291l4.001-1.419c1.29-.516,2.71-1.291,4.258-2.323l3.227,5.033c-3.441,2.408-6.84,4.281-10.194,5.618-3.958,1.159-7.442,1.738-10.453,1.738h-5.032c-1.119-.262-1.937-.438-2.452-.526l-4.001-.919-4.387-1.313.129,1.418ZM548.215,135.504c-1.549-.796-3.055-1.814-4.517-3.055l-3.097-.397h-2.323c-3.528,0-6.884.796-10.065,2.387-3.184,1.593-6.13,3.958-8.84,7.098-2.71,3.141-4.774,6.668-6.194,10.582-1.42,3.916-2.129,7.765-2.129,11.55,0,2.926.429,5.636,1.29,8.13.172.603.343,1.141.517,1.613.171.474.472,1.097.903,1.871l2.322,3.097c1.721,1.807,3.613,3.271,5.679,4.387,2.149.948,4.559,1.42,7.227,1.42,3.269,0,6.494-.899,9.678-2.7,3.183-1.8,6.065-4.502,8.646-8.104,2.323-3.172,4.172-7.029,5.549-11.574,1.375-4.545,2.064-9.175,2.064-13.891l-.129-1.93-.387-3.186-1.161-5.176-2.71-.796-2.323-1.327Z"/>
      <path d="M627.317,131.633c6.711-7.892,13.078-11.84,19.101-11.84,4.302,0,7.699,2.319,10.195,6.953,1.203,2.319,2.106,5.131,2.71,8.437.601,3.305.903,7.359.903,12.167v7.468l.516,11.33v3.349l.778,3.99c.432,1.289.692,2.061.778,2.319.348.43.692.817,1.039,1.16.691.686,1.729,1.157,3.115,1.416,1.903,0,3.849-.73,5.839-2.194l3.115-2.71c.778-.688,1.21-1.075,1.297-1.162.691-.688,1.428-1.548,2.206-2.581,2.682-3.355,5.668-7.698,8.954-13.034l13.627-21.68,5.321,2.968c-4.646,8.775-9.033,16.389-13.163,22.841-4.13,6.452-8.023,11.765-11.679,15.937-3.657,4.174-7.12,7.313-10.389,9.42-3.271,2.109-6.367,3.162-9.291,3.162l-3.613-.387c-1.206-.256-2.28-.728-3.226-1.416-1.636-1.115-3.098-3.046-4.388-5.795-.948-2.403-1.723-5.835-2.323-10.299-.258-2.232-.474-4.723-.646-7.469-.173-2.746-.258-5.75-.258-9.013v-5.537l-.387-8.628v-2.833l-.78-3.218c-.263-1.202-.783-2.081-1.565-2.639-.782-.557-1.78-.966-2.994-1.224-2.778,0-6.424,2.769-10.938,8.305-4.515,5.537-9.854,13.844-16.016,24.918l-3.906,6.694-2.085,3.734-3.646,7.342c-.782,1.974-1.171,3.605-1.171,4.892l.129,1.417.646,1.159-3.355,1.158-2.839.387c-1.98,0-3.529-.516-4.646-1.548-1.119-1.032-1.678-2.797-1.678-5.293l.364-5.551,1.216-12.651,1.289-13.81.828-7.479.303-5.761c0-1.962-.258-3.881-.774-5.759-.516-1.877-1.29-3.456-2.322-4.736l1.807-.516,2.71-.903,3.484-1.032,2.71-.387c1.462,0,2.646.643,3.549,1.93s1.354,3.033,1.354,5.238l-.244,5.091-.606,7.747c0,.943-.109,1.631-.323,2.059l-.167,1.805-1.629,17.425c7.569-15.958,14.624-27.668,21.163-35.133Z"/>
      <path d="M731.154,168.573c-3.198,4.388-6.634,8.323-10.308,11.808s-7.24,6.174-10.696,8.065c-3.287,1.633-6.225,2.452-8.818,2.452-2.248,0-4.28-.474-6.095-1.415-1.815-.944-3.371-2.384-4.668-4.315s-2.333-4.188-3.109-6.765l-.649-4.122v-4.767c0-6.868.988-13.179,2.969-18.934,1.978-5.754,4.903-11.035,8.774-15.844,3.872-4.809,8.128-8.501,12.773-11.078,4.646-2.577,9.592-3.866,14.841-3.866,1.29,0,2.665.065,4.129.19,1.462.127,3.312.526,5.55,1.2,3.613.925,7.227,2.397,10.84,4.417l6.696-34.072-5.152,1.166h-3.994c-1.98,0-3.571-.171-4.774-.516-1.206-.343-2.323-.988-3.355-1.936-.774-.946-1.549-2.236-2.323-3.872l-.903-2.581-.903-3.484c1.462,1.032,3.355,1.807,5.679,2.323,2.322.516,5.075.774,8.259.774,2.839,0,4.924-.042,6.259-.129,1.333-.084,3.117-.387,5.355-.903,3.871-.859,7.484-1.936,10.84-3.226l-13.809,68.911-1.807,10.84-.516,9.033c0,3.613.516,6.323,1.549,8.13,1.032,1.807,2.58,2.71,4.646,2.71s4.859-1.204,8.388-3.613c3.526-2.407,7.484-5.936,11.872-10.582,2.149-2.236,4.301-4.559,6.452-6.969,1.721-1.891,3.785-4.343,6.194-7.355,3.698-4.73,7.27-9.85,10.711-15.356l5.162,3.226c-3.613,6.884-7.787,13.421-12.518,19.615-4.732,6.194-9.83,11.895-15.292,17.099-5.464,5.206-10.497,9.185-15.099,11.937-4.603,2.752-8.581,4.129-11.937,4.129-4.13,0-7.313-1.633-9.55-4.903-2.064-3.355-3.097-8.431-3.097-15.228l.387-8.775,1.162-9.291c-3.113,5.678-6.484,10.969-10.114,15.873ZM732.493,129.723c-3.7-1.458-6.926-2.188-9.679-2.188-3.097,0-5.98.923-8.646,2.768-2.668,1.845-5.162,4.698-7.485,8.56-2.322,3.863-4.129,8.11-5.42,12.743-1.119,5.321-1.678,10.255-1.678,14.804,0,4.033.666,7.144,2.001,9.332,1.332,2.19,3.419,3.283,6.259,3.283,2.752,0,7.053-3.283,12.904-9.848,5.85-6.565,13.033-16.411,21.551-29.542l.774-1.287,1.548-2.319c-4.129-2.66-8.174-4.763-12.13-6.307Z"/>
    </g>
    <g>
      <path class="cls-2" d="M34.68,74.343c18.423-7.61,39.333,8.147,48.173,23.489,1.249,2.168,2.376,4.566,2.179,7.06s-2.185,5.002-4.686,4.922c-2.668-.086-4.363-2.755-6.367-4.518-5.769-5.074-15.544-2.333-20.158,3.81-6.185,8.234-3.363,21.107,5.29,26.502,12.031,7.501,23.334-5.672,27.859-15.67,11.071-24.462,9.592-54.019,25.589-76.36,13.162-18.382,37.348-27.633,59.237-21.105,22.516,6.715,39.071,29.102,36.309,52.868-3.204,27.572-26.315,47.047-51.384,55.222-6.113,1.993-12.397,3.445-18.743,4.465,16.81,7.174,30.564,21.225,37.377,38.185,6.813,16.96,6.601,36.621-.575,53.43-.578,1.353-1.25,2.752-2.453,3.599-1.335.941-3.074,1.03-4.708,1.042-19.528.138-39.289-6.453-53.878-19.434-14.589-12.981-23.552-32.483-22.471-51.981.106-1.911,1.329-4.877,2.98-5.192,1.642-.313,3.308,3.984,3.643,6.999,1.805,16.25,10.341,31.376,22.417,42.398,12.077,11.022,28.233,17.468,44.581,17.785,8.093-17.747,6.229-39.659-4.745-55.784-10.974-16.125-30.675-25.898-50.153-24.879-2.238.117-4.58.378-6.799.064-2.884-.409-4.683-.931-2.437-5.458.62-1.249,2.137-2.755,3.35-3.443,6.982-3.964,16.543-4.983,26.943-6.739,18.373-3.103,36.735-9.719,50.351-22.439,8.27-7.726,14.659-18.086,15.297-29.386,1.063-18.832-14.96-35.829-33.389-39.85-7.981-1.741-16.506-1.453-24.098,1.564-14.688,5.837-23.786,20.797-28.615,35.847s-6.463,31.024-11.885,45.871c-2.808,7.687-6.709,15.134-12.564,20.853-9.348,9.131-22.605,12.076-33.757,4.469-9.684-6.605-14.792-19.138-11.271-30.502,2.701-8.716,10.207-15.617,18.926-18.093,1.951-.554,4.115-.583,6.125-.746.81-.066,2.128.162,2.056-.819-.067-.914-2.081-2.687-2.687-3.366-3.821-4.273-8.789-8.099-14.245-9.977-10.383-3.575-14.673-1.745-16.614-4.702"/>
      <g>
        <path class="cls-5" d="M158.406,174.126c-15.011,2.54-28.761,13.738-34.906,24.943-.541.986-.44,2.209.306,3.05,2.278,2.569,5.465,4.592,9.233,6.033.748.286,1.502-.091,1.953-.752,6.786-9.945,16.911-18.399,28.58-19.259.786-.058,1.452-.653,1.489-1.44.172-3.591-1.59-8.321-4.189-11.623-.583-.741-1.536-1.109-2.466-.951Z"/>
        <path class="cls-5" d="M112.776,146.218c-4.48,2.268-8.364,5.305-11.448,9.301-.492.637-.682,1.458-.568,2.255.151,1.056.331,2.214.587,3.685.372,2.156.854,4.3,1.446,6.429.269.967,1.477,1.259,2.155.519,6.718-7.334,14.685-13.512,23.563-18.195.987-.521.847-1.99-.222-2.311-4.235-1.273-8.611-2.039-13-2.224-.868-.037-1.737.148-2.512.54Z"/>
        <path class="cls-5" d="M139.44,154.829c-12.905,4.774-22.693,11.876-31.034,22.466-.932,1.183-1.241,2.748-.843,4.2,1.018,3.716,3.682,8.433,7.137,11.455.626.548,1.59.391,2.048-.303,8.443-12.798,19.655-22.082,35.767-26.59.881-.246,1.302-1.248.835-2.035-2.002-3.368-6.271-7.215-10.247-9.047-1.152-.53-2.474-.587-3.663-.147Z"/>
        <path class="cls-5" d="M144.702,213.935c3.053,1.025,6.178,1.827,9.344,2.394.571.102,1.136-.157,1.479-.625,2.021-2.76,4.932-4.834,8.33-5.811.557-.16.994-.6,1.094-1.171.558-3.186.827-6.42.809-9.654-.007-1.297-1.166-2.312-2.444-2.092-8.524,1.471-15.71,6.727-19.821,13.94-.654,1.148-.046,2.598,1.207,3.018Z"/>
      </g>
    </g>
  </g>
  <g>
    <g>
      <path class="cls-4" d="M296.752,270.473c-.724,2.754-1.332,4.812-1.823,6.174-.493,1.362-.905,2.239-1.237,2.631-.333.391-.992.746-1.976,1.065-.493.145-1.049.268-1.671.369-.623.102-1.296.152-2.019.152.752-1.046,1.534-2.396,2.345-4.051.318-.64.738-1.547,1.259-2.723.521-1.177.955-2.2,1.303-3.071-1.418,1.346-2.953,2.428-4.603,3.245-1.534.702-3.111,1.053-4.732,1.053-1.592,0-3.061-.26-4.407-.781-1.346-.522-2.547-1.327-3.604-2.414-1.057-1.086-1.86-2.326-2.41-3.717s-.825-2.927-.825-4.608c0-2.666.564-5.195,1.693-7.586,1.128-2.391,2.836-4.637,5.123-6.738,2.286-2.102,4.739-3.674,7.359-4.718s5.406-1.565,8.358-1.565c1.042,0,1.903.043,2.583.13.68.087,1.281.246,1.802.478.983.347,1.476.927,1.476,1.736,0,.319-.174.768-.521,1.346-.232.347-.449.651-.651.912-.203.261-.493.623-.868,1.085l-.261.304-.304.391c-.521-1.187-1.288-2.069-2.301-2.648-1.013-.579-2.287-.868-3.821-.868-2.026,0-3.929.398-5.709,1.196-1.78.798-3.416,2.016-4.906,3.653-1.491,1.639-2.634,3.443-3.43,5.415-.796,1.971-1.194,4.074-1.194,6.306,0,1.537.196,2.893.586,4.066.391,1.174.962,2.197,1.715,3.066.752.87,1.65,1.566,2.692,2.087,1.013.435,2.156.653,3.43.653,1.1,0,2.156-.218,3.169-.654,1.013-.436,1.939-1.075,2.779-1.918.839-.842,1.542-1.838,2.106-2.987.564-1.148.991-2.463,1.281-3.945l.173-.959c-2.142,0-4.125.178-5.948.533-1.766.267-3.286.726-4.559,1.377.261-.935.564-1.68.912-2.235.289-.555.607-.941.955-1.161.347-.218.999-.445,1.954-.679l3.3-.482,2.648-.262c.955,0,1.982-.116,3.083-.348,1.129-.173,2.142-.405,3.039-.694l-3.343,12.391Z"/>
      <path class="cls-4" d="M331.66,265.686c-.84,1.633-1.491,3.114-1.954,4.441-.463,1.328-.695,2.458-.695,3.392l.13.787c.115.292.275.555.478.788l-.868.262c-.521.117-.999.277-1.433.481l-.825.219h-.738c-.492,0-.847-.102-1.063-.304-.217-.203-.355-.55-.413-1.042,0-.926.296-2.12.89-3.582.593-1.461,1.512-3.263,2.757-5.405l.695-1.129h-1.129c-.861,0-1.458.022-1.788.065-.331.043-.826.145-1.486.304-.661.16-1.349.413-2.067.76.289-1.129.883-2.011,1.78-2.648.896-.636,2.084-.955,3.56-.955h2.648l.564-.868c.695-1.042,1.129-1.679,1.302-1.911.174-.231,1.129-1.534,2.866-3.907,1.563-2.084,3.56-4.617,5.992-7.598l2.041-2.301c.492-.521.969-.94,1.433-1.259.174-.115.434-.239.781-.369.348-.13.637-.224.869-.282l2.779-.608-.478,3.695-.13,3.391c0,3.102.173,6.138.521,9.108.347,2.97.839,5.833,1.476,8.585.376,1.739.839,3.102,1.389,4.086.55.986,1.216,1.74,1.997,2.26-.666.638-1.281,1.116-1.845,1.436-.564.318-1.093.478-1.584.478-1.129,0-2.127-.944-2.996-2.833-.376-.871-.753-2.062-1.129-3.573-.376-1.511-.724-3.196-1.042-5.056l-1.78.261h-2.605c-.26,0-.579.029-.955.087h-1.737l-5.774-.087-.434.831ZM337.912,262.467h3.864c.492,0,.999-.038,1.52-.115.521-.077.969-.155,1.346-.232-.347-2.474-.607-4.717-.781-6.731l-.174-5.523v-1.64l-1.129,1.477-2.041,2.431c-1.361,1.708-2.612,3.394-3.755,5.058-1.144,1.665-2.034,3.133-2.67,4.407l-.478.781,4.298.087Z"/>
      <path class="cls-4" d="M385.916,268.596l-.412,2.501-.138,1.799c0,.527.101.988.304,1.383.202.396.535.739.999,1.031l-2.084.527-1.52.219c-.695,0-1.223-.138-1.585-.412-.362-.275-.542-.688-.542-1.237,0-.695.101-1.628.304-2.801.202-1.172.521-2.525.955-4.059l4.69-18.105-.869-2.692c-.492-1.504-.984-2.677-1.476-3.517-.434-.897-.912-1.52-1.433-1.867.636-.434,1.273-.76,1.91-.977.636-.217,1.201-.326,1.693-.326.405,0,.766.159,1.084.478.318.26.623.709.912,1.346l1.172,3.256,1.912,6.079.391,1.389.346.999.348.999c1.07,3.155,2.078,5.521,3.018,7.099.941,1.578,1.816,2.366,2.627,2.366.896,0,1.939-.622,3.127-1.867,1.186-1.244,2.547-3.111,4.08-5.601,1.535-2.489,2.75-4.848,3.646-7.077.811-2.055,1.303-3.908,1.477-5.558l2.041-.564,1.434-.217c.635,0,1.135.188,1.498.564.361.376.541.955.541,1.737l-.129,1.433-.348,2.779-.453,2.863-.207,2.216-1.467,13.807v.562c0,.23-.029.548-.088.951l-.043,1.383c0,1.411.137,2.521.412,3.327s.717,1.412,1.324,1.815c-.637.433-1.287.793-1.953,1.081-.666.287-1.26.432-1.781.432-.867,0-1.512-.441-1.932-1.324-.42-.884-.629-2.164-.629-3.844v-1.021c0-.333.025-.76.078-1.282l.236-2.823,1.852-17.581c-.781,2.518-1.736,4.877-2.863,7.077-1.012,2.084-2.227,4.053-3.643,5.905-1.244,1.679-2.502,3.011-3.773,3.994-1.156.897-2.27,1.346-3.34,1.346h-.822l-.781-.35c-.492-.262-1.041-.669-1.648-1.223-.318-.32-.586-.618-.803-.895s-.471-.663-.76-1.158c-.75-1.193-1.502-2.649-2.254-4.367-.607-1.601-1.229-3.538-1.865-5.809l-2.769,13.809Z"/>
      <path class="cls-4" d="M452.494,272.532l3.488-.343,2.268-.17c.93,0,1.627.318,2.093.955s.698,1.577.698,2.822l-1.606-.392-1.65-.13-1.866.047-2.215.278-4.819.651-2.214.326h-1.39c-.666,0-1.187-.065-1.562-.195-.377-.131-.688-.333-.934-.608-.246-.275-.456-.673-.63-1.193l-.304-1.867c.261.146.506.268.738.369.231.102.492.195.781.282l1.606.174h1.216l1.78-.305,5.253-26.44-2.171.347-1.823.087c-.955,0-1.693-.274-2.214-.825-.464-.608-.695-1.476-.695-2.605l.912.434,1.172.13,1.824-.13,2.604-.434,3.387-.695,3.039-.391,2.301-.174c.955,0,1.7.312,2.236.934.535.623.89,1.584,1.063,2.887-.406-.174-.827-.304-1.263-.391l-1.219-.174h-1.785l-1.915.269-.392.108-.522.054-5.271,26.307Z"/>
      <path class="cls-4" d="M494.418,265.383l-.634,3.427-.181,2.429c0,.984.137,1.809.412,2.474.274.665.701,1.186,1.281,1.562-.551.231-1.101.405-1.65.521-.55.115-.904.188-1.063.217-.159.028-.428.043-.804.043-.781,0-1.389-.174-1.823-.521-.376-.376-.564-.912-.564-1.606,0-.405.044-.919.131-1.542.087-.622.245-1.526.478-2.713.462-2.345.796-3.965.998-4.863.405-1.621.709-2.88.912-3.777l3.169-13.589-.607-1.65c-.435-1.042-.905-1.903-1.411-2.583-.507-.68-1.093-1.15-1.759-1.411l2.648-1.129c.695-.261,1.187-.391,1.477-.391.492,0,.904.109,1.237.326.332.217.63.558.891,1.021l1.91,4.255,4.342,10.16c2.025,4.862,3.733,8.524,5.123,10.984,1.389,2.46,2.402,3.69,3.039,3.69.463,0,.94-.521,1.433-1.563s.962-2.612,1.411-4.711c.448-2.098.803-4.189,1.063-6.274.115-1.07.202-2.112.261-3.126.058-1.013.087-2.142.087-3.386,0-1.708-.211-3.162-.63-4.363-.42-1.201-1.05-2.077-1.889-2.627.261-.174.579-.369.955-.586.376-.217.709-.383.999-.5.607-.26,1.2-.391,1.78-.391.781,0,1.417.347,1.91,1.042.434.695.651,1.722.651,3.083,0,1.129-.088,2.453-.262,3.973s-.297,2.518-.369,2.996-.261,1.628-.564,3.452c-.305,1.824-.688,3.749-1.152,5.774-.116.55-.275,1.281-.479,2.193-.202.912-.463,1.889-.782,2.931-.724,2.547-1.484,4.422-2.281,5.622-.797,1.201-1.645,1.802-2.542,1.802-.754,0-1.551-.318-2.391-.954-.754-.637-1.595-1.635-2.521-2.995-.725-1.127-1.753-2.994-3.086-5.598-.608-1.272-1.217-2.574-1.825-3.905s-1.304-2.922-2.086-4.773l-1.17-2.737-.725-1.699-.674-1.576-2.674,13.563Z"/>
      <path class="cls-4" d="M570.363,270.473c-.724,2.754-1.332,4.812-1.824,6.174s-.904,2.239-1.237,2.631c-.333.391-.991.746-1.975,1.065-.493.145-1.05.268-1.672.369-.623.102-1.296.152-2.019.152.752-1.046,1.533-2.396,2.344-4.051.318-.64.738-1.547,1.26-2.723.521-1.177.955-2.2,1.302-3.071-1.418,1.346-2.952,2.428-4.602,3.245-1.535.702-3.112,1.053-4.732,1.053-1.593,0-3.062-.26-4.407-.781-1.346-.522-2.547-1.327-3.604-2.414-1.057-1.086-1.86-2.326-2.409-3.717-.551-1.391-.825-2.927-.825-4.608,0-2.666.564-5.195,1.693-7.586,1.129-2.391,2.836-4.637,5.123-6.738,2.286-2.102,4.739-3.674,7.359-4.718,2.619-1.043,5.405-1.565,8.357-1.565,1.042,0,1.903.043,2.583.13s1.281.246,1.802.478c.984.347,1.477.927,1.477,1.736,0,.319-.174.768-.521,1.346-.231.347-.448.651-.65.912-.203.261-.493.623-.869,1.085l-.26.304-.305.391c-.521-1.187-1.288-2.069-2.301-2.648-1.014-.579-2.287-.868-3.82-.868-2.026,0-3.93.398-5.71,1.196-1.779.798-3.415,2.016-4.905,3.653-1.491,1.639-2.635,3.443-3.431,5.415-.796,1.971-1.193,4.074-1.193,6.306,0,1.537.195,2.893.586,4.066.391,1.174.962,2.197,1.715,3.066.752.87,1.649,1.566,2.691,2.087,1.014.435,2.156.653,3.431.653,1.1,0,2.155-.218,3.169-.654,1.013-.436,1.939-1.075,2.779-1.918.839-.842,1.541-1.838,2.105-2.987.564-1.148.991-2.463,1.28-3.945l.174-.959c-2.143,0-4.124.178-5.948.533-1.766.267-3.285.726-4.559,1.377.261-.935.564-1.68.912-2.235.289-.555.607-.941.955-1.161.348-.218.998-.445,1.954-.679l3.299-.482,2.648-.262c.955,0,1.982-.116,3.083-.348,1.129-.173,2.142-.405,3.039-.694l-3.343,12.391Z"/>
    </g>
    <rect class="cls-3" x="579.495" y="261.927" width="132.826" height="3.056"/>
    <rect class="cls-1" x="129.569" y="261.927" width="132.826" height="3.056" transform="translate(391.965 526.91) rotate(180)"/>
  </g>
</svg>