<?xml version="1.0" encoding="UTF-8"?>
<svg id="Layer_1" data-name="Layer 1" xmlns="http://www.w3.org/2000/svg" xmlns:xlink="http://www.w3.org/1999/xlink" viewBox="0 0 250 100">
  <defs>
    <style>
      .cls-1 {
        fill: url(#linear-gradient-2);
      }

      .cls-2 {
        fill: url(#linear-gradient);
      }

      .cls-3 {
        fill: #ffbe00;
      }

      .cls-4 {
        fill: #fff;
      }

      .cls-5 {
        fill: #ffbf00;
      }
    </style>
    <linearGradient id="linear-gradient" x1="174.686" y1="84.024" x2="216.311" y2="84.024" gradientUnits="userSpaceOnUse">
      <stop offset="0" stop-color="#fff"/>
      <stop offset=".99" stop-color="#bbbdbf" stop-opacity="0"/>
    </linearGradient>
    <linearGradient id="linear-gradient-2" x1="426.666" x2="466.615" gradientTransform="translate(-410.874 168.048) scale(1.042 -1)" xlink:href="#linear-gradient"/>
  </defs>
  <g>
    <g>
      <path class="cls-4" d="M59.052,56.999c.809.944,2.035,1.416,3.68,1.416,1.401,0,2.871-.324,4.408-.971,1.537-.647,3.168-1.664,4.894-3.054,1.725-1.388,3.336-2.938,4.833-4.65,1.496-1.712,2.972-3.714,4.428-6.005l1.698.89c-1.294,2.453-2.764,4.657-4.408,6.611-1.645,1.955-3.505,3.728-5.581,5.318s-4.125,2.79-6.146,3.599c-1.052.378-2.022.661-2.912.85s-1.806.283-2.75.283c-1.187,0-2.251-.175-3.195-.524-.89-.377-1.699-.942-2.427-1.696-.566-.672-1.079-1.574-1.537-2.704-.351-1.238-.526-2.422-.526-3.553,0-1.964.304-3.727.91-5.287s1.537-3.034,2.791-4.421c1.253-1.386,2.662-2.415,4.226-3.088s3.168-1.009,4.812-1.009h.971c.404,0,.849.095,1.334.282.647.162,1.206.445,1.678.85.472.404.883.944,1.233,1.618.107.297.202.606.283.93s.121.647.121.971c0,1.132-.344,2.218-1.031,3.255-.687,1.038-1.752,2.029-3.194,2.973-1.443.944-3.033,1.638-4.772,2.083-1.739.444-3.417.667-5.035.667,0,1.86.405,3.316,1.213,4.367ZM61.802,50.044c1.186-.404,2.265-.964,3.235-1.679.97-.714,1.705-1.489,2.204-2.325.499-.835.749-1.712.749-2.629,0-.862-.189-1.502-.566-1.921-.378-.417-.93-.627-1.658-.627-.809,0-1.625.229-2.446.688-.823.459-1.665,1.2-2.528,2.225-.701.89-1.274,1.888-1.719,2.992-.445,1.106-.815,2.427-1.112,3.964,1.348,0,2.628-.229,3.842-.688Z"/>
      <path class="cls-4" d="M82.265,56.999c.809.944,2.035,1.416,3.68,1.416,1.401,0,2.871-.324,4.408-.971,1.537-.647,3.168-1.664,4.894-3.054,1.725-1.388,3.336-2.938,4.833-4.65,1.496-1.712,2.972-3.714,4.428-6.005l1.698.89c-1.294,2.453-2.764,4.657-4.408,6.611-1.645,1.955-3.505,3.728-5.581,5.318s-4.125,2.79-6.146,3.599c-1.052.378-2.022.661-2.912.85s-1.806.283-2.75.283c-1.187,0-2.251-.175-3.195-.524-.89-.377-1.699-.942-2.427-1.696-.566-.672-1.079-1.574-1.537-2.704-.351-1.238-.526-2.422-.526-3.553,0-1.964.304-3.727.91-5.287s1.537-3.034,2.791-4.421c1.253-1.386,2.662-2.415,4.226-3.088s3.168-1.009,4.812-1.009h.971c.404,0,.849.095,1.334.282.647.162,1.206.445,1.678.85.472.404.883.944,1.233,1.618.107.297.202.606.283.93s.121.647.121.971c0,1.132-.344,2.218-1.031,3.255-.687,1.038-1.752,2.029-3.194,2.973-1.443.944-3.033,1.638-4.772,2.083-1.739.444-3.417.667-5.035.667,0,1.86.405,3.316,1.213,4.367ZM85.015,50.044c1.186-.404,2.265-.964,3.235-1.679.97-.714,1.705-1.489,2.204-2.325.499-.835.749-1.712.749-2.629,0-.862-.189-1.502-.566-1.921-.378-.417-.93-.627-1.658-.627-.809,0-1.625.229-2.446.688-.823.459-1.665,1.2-2.528,2.225-.701.89-1.274,1.888-1.719,2.992-.445,1.106-.815,2.427-1.112,3.964,1.348,0,2.628-.229,3.842-.688Z"/>
      <path class="cls-4" d="M107.378,55.503c-.485-1.752-1.092-3.491-1.82-5.217l-1.092-2.386c-.351-.781-.728-1.469-1.132-2.062l-1.213-1.86-1.254-1.617c.405-.324.89-.62,1.456-.89l.688-.243.849-.081c.512,0,.917.108,1.213.324.323.161.64.438.95.829.31.391.653,1.004,1.031,1.84l1.213,2.992.97,2.831.85,2.588,1.294,4.853c2.184-3.471,3.896-6.769,5.136-9.891.243-.619.526-1.413.85-2.383.242-.727.471-1.466.688-2.22.377-1.427.565-2.732.565-3.917,1.214.162,2.062.432,2.548.809.593.377.89.876.89,1.495,0,.673-.27,1.629-.809,2.868-.054.161-.182.478-.384.949s-.385.882-.546,1.232l-1.375,2.747c-.513.997-1.025,1.946-1.537,2.849s-1.079,1.839-1.698,2.809c-.513.861-.836,1.4-.971,1.616-.027.054-.256.377-.688.969l-1.82,2.546c-1.348,1.831-2.696,3.461-4.044,4.889-1.349,1.427-2.723,2.707-4.125,3.839-1.402,1.13-2.683,1.979-3.842,2.545-1.159.565-2.238.849-3.235.849-.917,0-1.577-.189-1.981-.566-.404-.378-.606-.93-.606-1.658l.121-1.011.364-1.133c.35.216.754.385,1.213.506s.93.182,1.416.182c1.914,0,3.781-.62,5.601-1.859,1.82-1.241,3.633-3.142,5.439-5.702-.27-1.968-.661-3.721-1.172-5.258Z"/>
      <path class="cls-4" d="M144.3,46.793l.041.403c0,1.83-.324,3.58-.971,5.248-.647,1.669-1.625,3.21-2.932,4.623-1.309,1.413-2.717,2.47-4.227,3.169s-3.114,1.05-4.812,1.05c-1.24,0-2.399-.202-3.478-.606-1.079-.404-2.076-1.024-2.993-1.86-.674-.755-1.308-1.726-1.9-2.912-.404-1.104-.606-2.331-.606-3.68,0-1.591.263-3.02.789-4.287.525-1.267,1.313-2.467,2.365-3.599,1.052-1.133,2.23-1.995,3.539-2.588,1.307-.593,2.688-.891,4.145-.891l.688.081.769.122-.404-.81-.121-.688.121-.93c.081-.297.256-.593.525-.89.782,0,1.543.121,2.285.364.741.242,1.449.593,2.123,1.051,1.348.809,2.561,1.981,3.64,3.519l1.658,1.011,1.698.688,1.415.323c.485.081.836.136,1.052.162.216.027.553.041,1.011.041.782,0,1.577-.135,2.387-.405l1.253-.444c.404-.162.85-.404,1.335-.728l1.011,1.577c-1.078.754-2.144,1.341-3.194,1.76-1.24.363-2.333.545-3.276.545h-1.577c-.351-.082-.606-.137-.768-.165l-1.254-.288-1.375-.411.04.444ZM138.193,43.927c-.485-.249-.957-.568-1.415-.957l-.971-.124h-.728c-1.106,0-2.157.249-3.154.748-.998.499-1.921,1.24-2.771,2.224-.85.984-1.496,2.09-1.941,3.316-.444,1.228-.667,2.434-.667,3.619,0,.917.135,1.767.404,2.548.054.189.107.357.162.506.054.148.147.344.283.586l.728.971c.539.566,1.132,1.025,1.779,1.375.674.297,1.429.445,2.265.445,1.024,0,2.035-.282,3.033-.847.997-.564,1.9-1.411,2.709-2.539.729-.994,1.308-2.203,1.739-3.627.431-1.425.647-2.875.647-4.354l-.041-.604-.121-.998-.364-1.622-.849-.25-.729-.416Z"/>
      <path class="cls-4" d="M170.99,46.793l.041.403c0,1.83-.324,3.58-.971,5.248-.647,1.669-1.625,3.21-2.932,4.623-1.309,1.413-2.717,2.47-4.227,3.169s-3.114,1.05-4.812,1.05c-1.24,0-2.399-.202-3.478-.606-1.079-.404-2.076-1.024-2.993-1.86-.674-.755-1.308-1.726-1.9-2.912-.404-1.104-.606-2.331-.606-3.68,0-1.591.263-3.02.789-4.287.525-1.267,1.313-2.467,2.365-3.599,1.052-1.133,2.23-1.995,3.539-2.588,1.307-.593,2.688-.891,4.145-.891l.688.081.769.122-.404-.81-.121-.688.121-.93c.081-.297.256-.593.525-.89.782,0,1.543.121,2.285.364.741.242,1.449.593,2.123,1.051,1.348.809,2.561,1.981,3.64,3.519l1.658,1.011,1.698.688,1.415.323c.485.081.836.136,1.052.162.216.027.553.041,1.011.041.782,0,1.577-.135,2.387-.405l1.253-.444c.404-.162.85-.404,1.335-.728l1.011,1.577c-1.078.754-2.144,1.341-3.194,1.76-1.24.363-2.333.545-3.276.545h-1.577c-.351-.082-.606-.137-.768-.165l-1.254-.288-1.375-.411.04.444ZM164.884,43.927c-.485-.249-.957-.568-1.415-.957l-.971-.124h-.728c-1.106,0-2.157.249-3.154.748-.998.499-1.921,1.24-2.771,2.224-.85.984-1.496,2.09-1.941,3.316-.444,1.228-.667,2.434-.667,3.619,0,.917.135,1.767.404,2.548.054.189.107.357.162.506.054.148.147.344.283.586l.728.971c.539.566,1.132,1.025,1.779,1.375.674.297,1.429.445,2.265.445,1.024,0,2.035-.282,3.033-.847.997-.564,1.9-1.411,2.709-2.539.729-.994,1.308-2.203,1.739-3.627.431-1.425.647-2.875.647-4.354l-.041-.604-.121-.998-.364-1.622-.849-.25-.729-.416Z"/>
      <path class="cls-4" d="M189.673,42.714c2.104-2.474,4.099-3.71,5.986-3.71,1.348,0,2.412.727,3.194,2.179.377.727.66,1.607.85,2.644.188,1.035.283,2.307.283,3.812v2.341l.161,3.55v1.05l.244,1.251c.136.403.217.646.244.727.108.135.217.256.325.363.217.215.542.362.977.443.597,0,1.206-.229,1.83-.688l.976-.85c.244-.215.38-.336.406-.363.217-.216.447-.485.691-.809.841-1.052,1.776-2.413,2.807-4.085l4.27-6.794,1.668.93c-1.456,2.75-2.831,5.137-4.125,7.158-1.294,2.022-2.515,3.688-3.66,4.994-1.146,1.309-2.23,2.292-3.255,2.952-1.025.661-1.996.991-2.912.991l-1.132-.121c-.378-.08-.715-.229-1.012-.443-.512-.35-.97-.955-1.374-1.816-.298-.753-.54-1.829-.729-3.228-.081-.699-.148-1.48-.202-2.341-.055-.86-.081-1.802-.081-2.824v-1.735l-.121-2.704v-.888l-.244-1.008c-.083-.377-.245-.652-.491-.827-.245-.175-.558-.303-.938-.384-.871,0-2.014.867-3.429,2.603-1.414,1.735-3.088,4.339-5.019,7.809l-1.224,2.098-.653,1.171-1.143,2.301c-.245.618-.367,1.13-.367,1.532l.04.444.202.363-1.051.363-.89.121c-.621,0-1.106-.162-1.456-.485-.351-.323-.526-.876-.526-1.658l.115-1.74.381-3.964.403-4.328.26-2.344.095-1.805c0-.615-.081-1.217-.242-1.805-.162-.589-.404-1.083-.729-1.484l.566-.162.85-.283,1.092-.323.849-.121c.458,0,.829.201,1.112.604s.425.95.425,1.642l-.076,1.596-.19,2.428c0,.295-.034.511-.102.645l-.052.565-.511,5.461c2.372-5.001,4.583-8.671,6.632-11.01Z"/>
      <path class="cls-4" d="M222.213,54.29c-1.002,1.375-2.079,2.608-3.23,3.7s-2.269,1.935-3.352,2.527c-1.03.512-1.951.769-2.764.769-.704,0-1.341-.148-1.91-.443-.568-.296-1.057-.747-1.463-1.353s-.73-1.312-.974-2.12l-.204-1.291v-1.494c0-2.152.31-4.13.931-5.934.619-1.803,1.536-3.458,2.75-4.965,1.213-1.507,2.547-2.664,4.003-3.472,1.455-.808,3.006-1.211,4.65-1.211.404,0,.835.02,1.294.059.458.04,1.038.165,1.739.376,1.132.29,2.265.752,3.396,1.385l2.099-10.678-1.614.365h-1.252c-.62,0-1.119-.054-1.496-.161-.378-.107-.728-.31-1.052-.607-.242-.296-.485-.7-.728-1.213l-.283-.809-.283-1.092c.458.323,1.052.566,1.779.728.729.162,1.591.243,2.588.243.89,0,1.544-.014,1.962-.041.418-.026.977-.121,1.678-.283,1.214-.269,2.346-.606,3.397-1.011l-4.327,21.596-.566,3.396-.161,2.831c0,1.132.161,1.981.485,2.548.323.565.809.849,1.455.849s1.523-.377,2.629-1.132,2.346-1.86,3.721-3.316c.674-.7,1.348-1.429,2.021-2.184.539-.593,1.187-1.361,1.941-2.305,1.159-1.482,2.278-3.087,3.356-4.812l1.618,1.011c-1.133,2.157-2.44,4.206-3.923,6.146-1.483,1.941-3.081,3.728-4.792,5.358-1.713,1.632-3.29,2.879-4.732,3.741s-2.688,1.294-3.74,1.294c-1.294,0-2.292-.512-2.992-1.537-.647-1.051-.971-2.642-.971-4.771l.121-2.75.364-2.912c-.976,1.779-2.032,3.438-3.17,4.975ZM222.633,42.115c-1.16-.457-2.171-.686-3.033-.686-.971,0-1.874.29-2.71.868s-1.617,1.472-2.345,2.682c-.729,1.211-1.295,2.542-1.699,3.994-.351,1.667-.525,3.213-.525,4.639,0,1.264.208,2.239.627,2.925.418.686,1.071,1.028,1.961,1.028.862,0,2.211-1.028,4.044-3.086s4.085-5.143,6.754-9.258l.242-.403.485-.727c-1.294-.833-2.562-1.492-3.801-1.977Z"/>
    </g>
    <g>
      <path class="cls-4" d="M3.953,24.761c5.773-2.385,12.326,2.553,15.096,7.361.391.679.744,1.431.683,2.212s-.685,1.568-1.468,1.542c-.836-.027-1.367-.863-1.995-1.416-1.808-1.59-4.871-.731-6.317,1.194-1.938,2.58-1.054,6.615,1.658,8.305,3.77,2.351,7.312-1.777,8.73-4.911,3.469-7.666,3.006-16.928,8.019-23.93,4.125-5.76,11.704-8.66,18.564-6.614,7.056,2.104,12.244,9.12,11.379,16.568-1.004,8.64-8.247,14.744-16.103,17.305-1.916.625-3.885,1.08-5.874,1.399,5.268,2.248,9.578,6.651,11.713,11.966,2.135,5.315,2.069,11.476-.18,16.744-.181.424-.392.862-.769,1.128-.418.295-.963.323-1.475.327-6.12.043-12.312-2.022-16.884-6.09-4.572-4.068-7.381-10.179-7.042-16.29.033-.599.417-1.528.934-1.627.514-.098,1.037,1.248,1.141,2.193.566,5.093,3.241,9.832,7.025,13.287,3.785,3.454,8.848,5.474,13.971,5.573,2.536-5.561,1.952-12.428-1.487-17.481s-9.613-8.116-15.717-7.797c-.701.037-1.435.119-2.131.02-.904-.128-1.467-.292-.764-1.71.194-.391.67-.863,1.05-1.079,2.188-1.242,5.184-1.562,8.443-2.112,5.758-.972,11.512-3.046,15.779-7.032,2.592-2.421,4.594-5.668,4.794-9.209.333-5.902-4.688-11.228-10.463-12.488-2.501-.546-5.173-.455-7.552.49-4.603,1.829-7.454,6.517-8.967,11.234-1.513,4.716-2.025,9.722-3.724,14.375-.88,2.409-2.103,4.743-3.937,6.535-2.929,2.861-7.084,3.784-10.579,1.4-3.035-2.07-4.636-5.998-3.532-9.559.846-2.731,3.199-4.894,5.931-5.67.611-.174,1.29-.183,1.92-.234.254-.021.667.051.644-.257-.021-.286-.652-.842-.842-1.055-1.197-1.339-2.754-2.538-4.464-3.126-3.254-1.12-4.598-.547-5.206-1.474"/>
      <g>
        <path class="cls-5" d="M42.726,56.031c-4.704.796-9.013,4.305-10.939,7.816-.169.309-.138.692.096.956.714.805,1.713,1.439,2.893,1.891.234.09.471-.029.612-.236,2.127-3.116,5.3-5.766,8.956-6.035.246-.018.455-.204.467-.451.054-1.125-.498-2.608-1.313-3.642-.183-.232-.481-.347-.773-.298Z"/>
        <path class="cls-5" d="M28.427,47.285c-1.404.711-2.621,1.663-3.588,2.915-.154.2-.214.457-.178.707.047.331.104.694.184,1.155.116.675.268,1.348.453,2.015.084.303.463.395.675.163,2.105-2.298,4.602-4.234,7.384-5.702.309-.163.265-.624-.07-.724-1.327-.399-2.699-.639-4.074-.697-.272-.011-.544.046-.787.169Z"/>
        <path class="cls-5" d="M36.783,49.983c-4.044,1.496-7.112,3.722-9.725,7.04-.292.371-.389.861-.264,1.316.319,1.165,1.154,2.643,2.236,3.59.196.172.498.123.642-.095,2.646-4.011,6.16-6.92,11.209-8.333.276-.077.408-.391.262-.638-.627-1.055-1.965-2.261-3.211-2.835-.361-.166-.775-.184-1.148-.046Z"/>
        <path class="cls-5" d="M38.432,68.506c.957.321,1.936.572,2.928.75.179.032.356-.049.464-.196.633-.865,1.546-1.515,2.611-1.821.174-.05.312-.188.343-.367.175-.998.259-2.012.254-3.025-.002-.406-.365-.725-.766-.656-2.671.461-4.923,2.108-6.211,4.368-.205.36-.014.814.378.946Z"/>
      </g>
    </g>
  </g>
  <g>
    <g>
      <path class="cls-3" d="M86.081,86.223c-.227.863-.417,1.508-.571,1.935-.154.428-.284.702-.388.825-.104.122-.311.233-.619.333-.154.046-.329.084-.524.116-.195.031-.406.048-.633.048.236-.328.481-.751.735-1.27.1-.2.231-.484.395-.854.163-.368.299-.689.408-.962-.444.421-.925.761-1.442,1.017-.481.22-.975.33-1.483.33-.499,0-.959-.082-1.381-.245s-.798-.416-1.129-.756c-.331-.341-.583-.729-.755-1.165-.172-.437-.258-.918-.258-1.444,0-.836.177-1.628.531-2.378.354-.749.889-1.453,1.605-2.111.716-.658,1.485-1.151,2.306-1.479.821-.327,1.694-.49,2.619-.49.327,0,.596.014.81.041.213.027.401.077.564.149.308.108.463.29.463.544,0,.101-.055.241-.164.422-.073.109-.141.204-.204.286-.063.081-.154.195-.272.34l-.082.096-.095.122c-.164-.372-.404-.648-.721-.83-.318-.182-.717-.271-1.197-.271-.635,0-1.231.125-1.789.374-.558.25-1.071.632-1.538,1.146-.467.513-.826,1.078-1.075,1.696s-.374,1.276-.374,1.976c0,.482.062.907.184,1.274.123.368.302.688.538.961s.517.491.844.654c.317.137.675.204,1.075.204.345,0,.676-.068.993-.205.317-.136.607-.337.871-.601s.483-.576.66-.936c.177-.36.311-.772.401-1.237l.054-.3c-.671,0-1.292.056-1.864.167-.553.083-1.03.228-1.429.432.082-.293.177-.526.286-.7.091-.175.19-.296.299-.364s.313-.14.612-.213l1.034-.151.83-.082c.299,0,.621-.036.966-.108.354-.055.671-.127.953-.218l-1.048,3.883Z"/>
      <path class="cls-3" d="M97.02,84.723c-.263.512-.467.976-.612,1.392-.146.416-.218.771-.218,1.062l.041.247c.037.092.086.174.15.247l-.272.082c-.164.037-.313.087-.449.15l-.258.069h-.231c-.154,0-.265-.032-.333-.096-.068-.063-.111-.172-.129-.326,0-.29.093-.664.279-1.123.186-.457.474-1.022.864-1.693l.218-.354h-.354c-.27,0-.457.007-.561.021-.104.013-.258.045-.465.095s-.423.129-.648.238c.091-.354.277-.631.558-.83.281-.199.653-.3,1.116-.3h.83l.177-.271c.217-.327.354-.526.408-.599.054-.072.354-.48.898-1.225.49-.653,1.116-1.447,1.877-2.381l.64-.722c.154-.163.304-.294.449-.395.055-.036.136-.074.245-.115s.199-.07.272-.089l.871-.19-.149,1.158-.041,1.062c0,.973.055,1.924.164,2.854s.263,1.828.462,2.69c.118.545.263.972.436,1.281.172.309.381.545.626.708-.209.2-.402.35-.579.449-.177.101-.342.15-.497.15-.354,0-.667-.296-.938-.888-.118-.273-.236-.646-.354-1.12-.118-.474-.227-1.001-.327-1.584l-.558.081h-.816c-.082,0-.182.01-.299.027h-.544l-1.81-.027-.136.261ZM98.979,83.714h1.211c.154,0,.313-.012.476-.036.164-.024.304-.049.422-.073-.109-.774-.19-1.478-.245-2.108l-.055-1.731v-.514l-.354.463-.64.762c-.426.535-.819,1.063-1.177,1.585-.358.521-.638.982-.837,1.381l-.149.245,1.347.027Z"/>
      <path class="cls-3" d="M114.023,85.635l-.129.783-.043.564c0,.165.032.31.095.433.063.124.167.231.313.323l-.653.165-.476.069c-.218,0-.383-.043-.497-.13-.114-.086-.17-.215-.17-.388,0-.218.031-.51.095-.877.063-.367.163-.792.299-1.272l1.47-5.674-.272-.844c-.154-.471-.309-.839-.463-1.102-.136-.281-.286-.477-.449-.585.199-.137.399-.238.599-.307.199-.067.376-.102.531-.102.126,0,.24.05.34.149.1.082.195.223.286.422l.368,1.021.599,1.904.122.436.109.313.109.312c.335.989.651,1.73.946,2.225.294.494.569.741.823.741.281,0,.608-.194.98-.585.371-.39.798-.975,1.278-1.755s.861-1.52,1.143-2.218c.254-.644.408-1.225.463-1.741l.64-.177.449-.068c.199,0,.355.059.469.177s.171.3.171.544l-.041.449-.109.871-.142.897-.064.694-.46,4.326v.177c0,.072-.01.172-.027.298l-.014.434c0,.442.043.79.129,1.043.086.252.225.442.415.568-.199.136-.403.248-.612.339-.209.09-.395.136-.558.136-.272,0-.475-.139-.605-.415-.132-.277-.197-.679-.197-1.205v-.319c0-.104.008-.238.024-.402l.074-.885.58-5.509c-.245.789-.544,1.528-.897,2.218-.316.653-.697,1.27-1.142,1.851-.39.526-.783.943-1.182,1.252-.363.281-.712.421-1.047.421h-.258l-.245-.109c-.154-.082-.326-.21-.517-.383-.1-.101-.184-.194-.251-.28-.068-.087-.147-.208-.238-.363-.235-.374-.471-.83-.707-1.368-.19-.502-.385-1.109-.584-1.82l-.868,4.327Z"/>
      <path class="cls-3" d="M134.887,86.868l1.093-.107.711-.054c.291,0,.51.1.655.3.146.199.22.494.22.884l-.504-.122-.517-.041-.586.015-.693.087-1.511.204-.693.103h-.436c-.209,0-.372-.021-.49-.062-.117-.041-.215-.104-.292-.19s-.143-.211-.197-.374l-.096-.585c.082.046.159.084.231.115.072.032.154.062.245.089l.504.055h.381l.558-.096,1.646-8.286-.681.109-.571.027c-.3,0-.53-.086-.694-.259-.145-.19-.218-.463-.218-.816l.286.136.367.041.571-.041.816-.136,1.062-.218.952-.122.722-.055c.299,0,.532.098.7.293.168.194.279.496.334.904-.128-.055-.26-.095-.396-.122l-.382-.055h-.56l-.6.084-.123.034-.164.017-1.651,8.244Z"/>
      <path class="cls-3" d="M148.024,84.628l-.198,1.074-.057.761c0,.309.043.567.129.775s.22.371.401.489c-.172.072-.345.127-.517.163-.173.036-.284.059-.334.068-.05.009-.134.014-.251.014-.245,0-.436-.055-.571-.163-.118-.118-.178-.286-.178-.504,0-.127.014-.288.041-.483.027-.194.077-.478.149-.85.146-.735.25-1.243.313-1.524.127-.508.222-.902.285-1.184l.994-4.259-.19-.517c-.137-.326-.284-.597-.442-.81-.159-.213-.343-.36-.552-.442l.83-.354c.218-.082.372-.123.463-.123.154,0,.283.034.388.103s.197.175.279.319l.599,1.334,1.36,3.184c.635,1.523,1.17,2.671,1.605,3.442.436.771.753,1.156.952,1.156.146,0,.295-.163.449-.489.154-.327.302-.819.442-1.477s.252-1.313.333-1.966c.036-.336.063-.662.082-.979.018-.318.027-.672.027-1.062,0-.535-.066-.991-.197-1.367-.132-.377-.329-.651-.592-.823.081-.055.181-.116.299-.184.118-.068.223-.12.313-.157.19-.081.376-.122.558-.122.245,0,.444.108.599.326.136.218.204.54.204.967,0,.354-.027.769-.082,1.244-.055.477-.093.789-.115.939-.023.149-.082.51-.178,1.081s-.216,1.175-.36,1.81c-.037.173-.087.401-.15.688-.063.285-.146.592-.245.918-.227.799-.465,1.386-.715,1.763-.25.376-.516.564-.797.564-.236,0-.486-.1-.749-.3-.236-.199-.5-.512-.79-.938-.228-.354-.55-.938-.967-1.755-.191-.398-.382-.807-.572-1.224s-.409-.915-.654-1.496l-.366-.857-.228-.532-.211-.494-.838,4.251Z"/>
      <path class="cls-3" d="M171.824,86.223c-.227.863-.417,1.508-.571,1.935-.154.428-.283.702-.388.825-.104.122-.311.233-.619.333-.154.046-.328.084-.523.116-.195.031-.406.048-.633.048.236-.328.48-.751.734-1.27.101-.2.231-.484.395-.854.164-.368.3-.689.408-.962-.444.421-.925.761-1.441,1.017-.481.22-.976.33-1.483.33-.499,0-.959-.082-1.381-.245s-.799-.416-1.13-.756c-.331-.341-.582-.729-.755-1.165-.172-.437-.259-.918-.259-1.444,0-.836.178-1.628.531-2.378.354-.749.889-1.453,1.605-2.111s1.485-1.151,2.306-1.479c.821-.327,1.694-.49,2.619-.49.327,0,.597.014.81.041.214.027.401.077.565.149.308.108.462.29.462.544,0,.101-.054.241-.163.422-.072.109-.141.204-.204.286-.063.081-.154.195-.272.34l-.081.096-.096.122c-.163-.372-.403-.648-.721-.83s-.717-.271-1.197-.271c-.635,0-1.231.125-1.789.374-.558.25-1.07.632-1.538,1.146-.467.513-.825,1.078-1.074,1.696-.25.618-.374,1.276-.374,1.976,0,.482.061.907.184,1.274.122.368.301.688.537.961.235.272.517.491.844.654.317.137.676.204,1.074.204.345,0,.676-.068.994-.205.317-.136.607-.337.87-.601.264-.264.483-.576.66-.936.177-.36.311-.772.401-1.237l.055-.3c-.672,0-1.293.056-1.864.167-.554.083-1.029.228-1.429.432.082-.293.177-.526.286-.7.09-.175.19-.296.299-.364.109-.068.313-.14.612-.213l1.034-.151.83-.082c.299,0,.621-.036.966-.108.354-.055.671-.127.952-.218l-1.048,3.883Z"/>
    </g>
    <rect class="cls-2" x="174.686" y="83.545" width="41.625" height=".958"/>
    <rect class="cls-1" x="33.69" y="83.545" width="41.625" height=".958" transform="translate(109.004 168.048) rotate(180)"/>
  </g>
</svg>